# xmcd CD database file
#
# Track frame offsets:
#	150
#	15335
#	38108
#	60180
#	76773
#	89265
#	106759
#	121638
#	160999
#
# Disc length: 2693 seconds
#
# Revision: 0
# Processed by: cddbd v1.5.2PL0 Copyright (c) Steve Scherf et al.
# Submitted via: CDex 1.51
#
DISCID=510a8309
DTITLE=Quasifunk - In Ruhe
DYEAR=1900
DGENRE=Jazz
TTITLE0=Quasifunk - Toter Fuﬂg‰nger
TTITLE1=Quasifunk - Leckerbissen
TTITLE2=Quasifunk - Manchmal kommt der Ozean
TTITLE3=Quasifunk - Mikrokosmos
TTITLE4=Quasifunk - In mir ist
TTITLE5=Quasifunk - In Ruhe
TTITLE6=Quasifunk - Funkstelle
TTITLE7=Quasifunk - Augenblick
TTITLE8=Quasifunk - Badetag
EXTD=
EXTT0=
EXTT1=
EXTT2=
EXTT3=
EXTT4=
EXTT5=
EXTT6=
EXTT7=
EXTT8=
PLAYORDER=
